<svg width="2422" height="1715" viewBox="0 0 2422 1715" fill="none" xmlns="http://www.w3.org/2000/svg">
<rect width="2422" height="1715" rx="158" fill="#141414"/>
<path d="M1766.23 1328H1407.29V315H1769.2C1871.2 315 1958.95 335.293 2032.48 375.835L2032.48 375.837C2106.01 416.05 2162.55 473.89 2202.12 549.381L2202.13 549.384C2242.03 624.873 2262 715.236 2262 820.509C2262 926.113 2242.03 1016.81 2202.13 1092.63L2202.12 1092.63C2162.55 1168.45 2105.68 1226.62 2031.49 1267.16L2031.49 1267.16C1957.63 1307.71 1869.22 1328 1766.23 1328ZM1619.97 1145.13V1146.13H1620.97H1757.31C1820.88 1146.13 1874.43 1134.88 1917.9 1112.32L1917.91 1112.32C1961.74 1089.41 1994.61 1054.05 2016.51 1006.28C2038.74 958.201 2049.82 896.258 2049.82 820.509C2049.82 745.419 2038.74 683.972 2016.51 636.217C1994.61 588.455 1961.91 553.26 1918.4 530.683C1874.92 508.123 1821.37 496.87 1757.8 496.87H1620.97H1619.97V497.87V1145.13ZM1228.67 315V1328H1016V315H1228.67Z" stroke="url(#paint0_linear_719_122)" stroke-width="2"/>
<path d="M557.754 822.001L558.044 821.5L557.754 820.999L264.735 315H497.535L790.844 821.5L497.535 1328H264.735L557.754 822.001Z" stroke="url(#paint1_linear_719_122)" stroke-width="2"/>
<path d="M158.231 131H134L164.288 183.5L134 236H158.231L188.519 183.5L158.231 131Z" fill="#1C68F3"/>
<path d="M216.788 131H236.98V236H216.788V131Z" fill="white"/>
<path fill-rule="evenodd" clip-rule="evenodd" d="M247.077 131V236H275.346C304.341 236 327.846 212.495 327.846 183.5C327.846 154.505 304.341 131 275.346 131H247.077ZM267.269 215.808H275.346C293.189 215.808 307.654 201.343 307.654 183.5C307.654 165.657 293.189 151.192 275.346 151.192H267.269V215.808Z" fill="white"/>
<rect x="186.5" y="215.808" width="20.1923" height="20.1923" fill="#1C68F3"/>
<g filter="url(#filter0_d_719_122)">
<path d="M286.468 1606H276.582L291.646 1562.36H303.535L318.578 1606H308.691L297.761 1572.34H297.42L286.468 1606ZM285.85 1588.85H309.203V1596.05H285.85V1588.85ZM1209.31 1573.27V1580.09H1189.6V1573.27H1209.31ZM1194.07 1565.43H1203.15V1595.94C1203.15 1596.78 1203.28 1597.43 1203.53 1597.9C1203.79 1598.36 1204.15 1598.68 1204.6 1598.86C1205.07 1599.05 1205.61 1599.14 1206.22 1599.14C1206.65 1599.14 1207.07 1599.1 1207.5 1599.03C1207.92 1598.95 1208.25 1598.88 1208.48 1598.84L1209.91 1605.6C1209.45 1605.74 1208.81 1605.9 1207.99 1606.09C1207.16 1606.28 1206.16 1606.4 1204.98 1606.45C1202.8 1606.53 1200.88 1606.24 1199.23 1605.57C1197.6 1604.91 1196.33 1603.87 1195.42 1602.46C1194.51 1601.06 1194.06 1599.28 1194.07 1597.14V1565.43ZM1229.66 1606.64C1226.35 1606.64 1223.49 1605.94 1221.07 1604.53C1218.67 1603.11 1216.82 1601.13 1215.51 1598.61C1214.2 1596.06 1213.55 1593.12 1213.55 1589.76C1213.55 1586.38 1214.2 1583.43 1215.51 1580.9C1216.82 1578.36 1218.67 1576.38 1221.07 1574.98C1223.49 1573.56 1226.35 1572.85 1229.66 1572.85C1232.97 1572.85 1235.82 1573.56 1238.22 1574.98C1240.64 1576.38 1242.5 1578.36 1243.8 1580.9C1245.11 1583.43 1245.77 1586.38 1245.77 1589.76C1245.77 1593.12 1245.11 1596.06 1243.8 1598.61C1242.5 1601.13 1240.64 1603.11 1238.22 1604.53C1235.82 1605.94 1232.97 1606.64 1229.66 1606.64ZM1229.7 1599.61C1231.21 1599.61 1232.46 1599.18 1233.47 1598.33C1234.48 1597.46 1235.24 1596.28 1235.75 1594.79C1236.28 1593.3 1236.54 1591.6 1236.54 1589.7C1236.54 1587.8 1236.28 1586.1 1235.75 1584.61C1235.24 1583.12 1234.48 1581.94 1233.47 1581.07C1232.46 1580.2 1231.21 1579.77 1229.7 1579.77C1228.18 1579.77 1226.9 1580.2 1225.86 1581.07C1224.84 1581.94 1224.07 1583.12 1223.54 1584.61C1223.03 1586.1 1222.78 1587.8 1222.78 1589.7C1222.78 1591.6 1223.03 1593.3 1223.54 1594.79C1224.07 1596.28 1224.84 1597.46 1225.86 1598.33C1226.9 1599.18 1228.18 1599.61 1229.7 1599.61ZM1265.55 1618.27V1573.27H1274.5V1578.77H1274.91C1275.31 1577.89 1275.88 1576.99 1276.63 1576.09C1277.4 1575.16 1278.39 1574.39 1279.62 1573.78C1280.85 1573.16 1282.39 1572.85 1284.22 1572.85C1286.6 1572.85 1288.81 1573.47 1290.82 1574.72C1292.84 1575.96 1294.45 1577.83 1295.66 1580.33C1296.87 1582.81 1297.47 1585.93 1297.47 1589.68C1297.47 1593.33 1296.88 1596.41 1295.7 1598.93C1294.54 1601.43 1292.95 1603.32 1290.93 1604.62C1288.93 1605.89 1286.68 1606.53 1284.2 1606.53C1282.44 1606.53 1280.94 1606.24 1279.7 1605.66C1278.48 1605.08 1277.48 1604.35 1276.7 1603.46C1275.92 1602.57 1275.32 1601.67 1274.91 1600.76H1274.63V1618.27H1265.55ZM1274.44 1589.64C1274.44 1591.58 1274.71 1593.28 1275.25 1594.73C1275.79 1596.18 1276.57 1597.31 1277.59 1598.12C1278.61 1598.91 1279.86 1599.31 1281.32 1599.31C1282.8 1599.31 1284.05 1598.9 1285.07 1598.1C1286.09 1597.27 1286.87 1596.13 1287.39 1594.69C1287.93 1593.22 1288.2 1591.54 1288.2 1589.64C1288.2 1587.75 1287.94 1586.09 1287.41 1584.65C1286.89 1583.22 1286.11 1582.09 1285.09 1581.28C1284.07 1580.47 1282.81 1580.07 1281.32 1580.07C1279.84 1580.07 1278.59 1580.46 1277.57 1581.24C1276.56 1582.02 1275.79 1583.13 1275.25 1584.57C1274.71 1586 1274.44 1587.69 1274.44 1589.64ZM1318.31 1606.64C1315 1606.64 1312.14 1605.94 1309.72 1604.53C1307.32 1603.11 1305.47 1601.13 1304.16 1598.61C1302.85 1596.06 1302.2 1593.12 1302.2 1589.76C1302.2 1586.38 1302.85 1583.43 1304.16 1580.9C1305.47 1578.36 1307.32 1576.38 1309.72 1574.98C1312.14 1573.56 1315 1572.85 1318.31 1572.85C1321.62 1572.85 1324.47 1573.56 1326.87 1574.98C1329.29 1576.38 1331.15 1578.36 1332.46 1580.9C1333.76 1583.43 1334.42 1586.38 1334.42 1589.76C1334.42 1593.12 1333.76 1596.06 1332.46 1598.61C1331.15 1601.13 1329.29 1603.11 1326.87 1604.53C1324.47 1605.94 1321.62 1606.64 1318.31 1606.64ZM1318.35 1599.61C1319.86 1599.61 1321.11 1599.18 1322.12 1598.33C1323.13 1597.46 1323.89 1596.28 1324.4 1594.79C1324.93 1593.3 1325.19 1591.6 1325.19 1589.7C1325.19 1587.8 1324.93 1586.1 1324.4 1584.61C1323.89 1583.12 1323.13 1581.94 1322.12 1581.07C1321.11 1580.2 1319.86 1579.77 1318.35 1579.77C1316.83 1579.77 1315.55 1580.2 1314.52 1581.07C1313.49 1581.94 1312.72 1583.12 1312.19 1584.61C1311.68 1586.1 1311.43 1587.8 1311.43 1589.7C1311.43 1591.6 1311.68 1593.3 1312.19 1594.79C1312.72 1596.28 1313.49 1597.46 1314.52 1598.33C1315.55 1599.18 1316.83 1599.61 1318.35 1599.61ZM1345.96 1606L1337.05 1573.27H1346.23L1351.3 1595.26H1351.6L1356.89 1573.27H1365.9L1371.27 1595.13H1371.54L1376.53 1573.27H1385.69L1376.81 1606H1367.2L1361.57 1585.42H1361.17L1355.54 1606H1345.96ZM1404.63 1606.64C1401.26 1606.64 1398.36 1605.96 1395.94 1604.59C1393.52 1603.22 1391.66 1601.27 1390.35 1598.76C1389.05 1596.23 1388.39 1593.24 1388.39 1589.79C1388.39 1586.42 1389.05 1583.46 1390.35 1580.92C1391.66 1578.38 1393.5 1576.4 1395.87 1574.98C1398.26 1573.56 1401.06 1572.85 1404.27 1572.85C1406.43 1572.85 1408.44 1573.19 1410.3 1573.89C1412.17 1574.57 1413.8 1575.6 1415.2 1576.98C1416.6 1578.36 1417.7 1580.09 1418.48 1582.18C1419.26 1584.25 1419.65 1586.68 1419.65 1589.47V1591.96H1392.02V1586.33H1411.11C1411.11 1585.03 1410.82 1583.87 1410.25 1582.86C1409.69 1581.85 1408.9 1581.06 1407.89 1580.5C1406.89 1579.91 1405.74 1579.62 1404.42 1579.62C1403.04 1579.62 1401.82 1579.94 1400.75 1580.58C1399.7 1581.21 1398.88 1582.05 1398.28 1583.12C1397.68 1584.17 1397.38 1585.34 1397.36 1586.63V1591.98C1397.36 1593.6 1397.66 1595 1398.26 1596.18C1398.87 1597.36 1399.73 1598.27 1400.84 1598.9C1401.94 1599.54 1403.26 1599.86 1404.78 1599.86C1405.79 1599.86 1406.71 1599.72 1407.55 1599.44C1408.39 1599.15 1409.1 1598.73 1409.7 1598.16C1410.3 1597.59 1410.75 1596.89 1411.06 1596.07L1419.46 1596.62C1419.03 1598.64 1418.16 1600.4 1416.84 1601.91C1415.53 1603.4 1413.84 1604.57 1411.77 1605.4C1409.71 1606.23 1407.33 1606.64 1404.63 1606.64ZM1425.57 1606V1573.27H1434.37V1578.98H1434.71C1435.31 1576.95 1436.31 1575.42 1437.72 1574.38C1439.12 1573.33 1440.74 1572.8 1442.58 1572.8C1443.03 1572.8 1443.52 1572.83 1444.05 1572.89C1444.57 1572.95 1445.03 1573.02 1445.43 1573.12V1581.18C1445.01 1581.05 1444.42 1580.94 1443.66 1580.84C1442.91 1580.74 1442.22 1580.69 1441.6 1580.69C1440.26 1580.69 1439.07 1580.98 1438.02 1581.56C1436.98 1582.13 1436.16 1582.92 1435.54 1583.95C1434.95 1584.97 1434.65 1586.15 1434.65 1587.48V1606H1425.57ZM1481.42 1573.27V1580.09H1461.71V1573.27H1481.42ZM1466.18 1565.43H1475.26V1595.94C1475.26 1596.78 1475.39 1597.43 1475.64 1597.9C1475.9 1598.36 1476.26 1598.68 1476.71 1598.86C1477.18 1599.05 1477.72 1599.14 1478.33 1599.14C1478.76 1599.14 1479.18 1599.1 1479.61 1599.03C1480.03 1598.95 1480.36 1598.88 1480.59 1598.84L1482.02 1605.6C1481.56 1605.74 1480.92 1605.9 1480.1 1606.09C1479.27 1606.28 1478.27 1606.4 1477.09 1606.45C1474.91 1606.53 1472.99 1606.24 1471.34 1605.57C1469.71 1604.91 1468.44 1603.87 1467.53 1602.46C1466.62 1601.06 1466.17 1599.28 1466.18 1597.14V1565.43ZM1497.11 1587.08V1606H1488.03V1562.36H1496.86V1579.05H1497.24C1497.98 1577.12 1499.17 1575.6 1500.82 1574.51C1502.47 1573.4 1504.53 1572.85 1507.02 1572.85C1509.29 1572.85 1511.27 1573.34 1512.96 1574.34C1514.67 1575.32 1515.99 1576.73 1516.93 1578.58C1517.88 1580.41 1518.35 1582.61 1518.33 1585.16V1606H1509.26V1586.78C1509.27 1584.76 1508.76 1583.19 1507.72 1582.07C1506.7 1580.95 1505.26 1580.39 1503.42 1580.39C1502.18 1580.39 1501.09 1580.65 1500.14 1581.18C1499.2 1581.7 1498.46 1582.47 1497.92 1583.48C1497.4 1584.47 1497.13 1585.67 1497.11 1587.08ZM1540.39 1606.64C1537.02 1606.64 1534.13 1605.96 1531.7 1604.59C1529.28 1603.22 1527.42 1601.27 1526.11 1598.76C1524.81 1596.23 1524.15 1593.24 1524.15 1589.79C1524.15 1586.42 1524.81 1583.46 1526.11 1580.92C1527.42 1578.38 1529.26 1576.4 1531.63 1574.98C1534.02 1573.56 1536.82 1572.85 1540.03 1572.85C1542.19 1572.85 1544.2 1573.19 1546.06 1573.89C1547.93 1574.57 1549.57 1575.6 1550.96 1576.98C1552.36 1578.36 1553.46 1580.09 1554.24 1582.18C1555.02 1584.25 1555.41 1586.68 1555.41 1589.47V1591.96H1527.78V1586.33H1546.87C1546.87 1585.03 1546.58 1583.87 1546.02 1582.86C1545.45 1581.85 1544.66 1581.06 1543.65 1580.5C1542.66 1579.91 1541.5 1579.62 1540.18 1579.62C1538.8 1579.62 1537.58 1579.94 1536.51 1580.58C1535.46 1581.21 1534.64 1582.05 1534.04 1583.12C1533.44 1584.17 1533.14 1585.34 1533.12 1586.63V1591.98C1533.12 1593.6 1533.42 1595 1534.02 1596.18C1534.63 1597.36 1535.49 1598.27 1536.6 1598.9C1537.71 1599.54 1539.02 1599.86 1540.54 1599.86C1541.55 1599.86 1542.47 1599.72 1543.31 1599.44C1544.15 1599.15 1544.86 1598.73 1545.46 1598.16C1546.06 1597.59 1546.51 1596.89 1546.83 1596.07L1555.22 1596.62C1554.79 1598.64 1553.92 1600.4 1552.6 1601.91C1551.29 1603.4 1549.6 1604.57 1547.53 1605.4C1545.47 1606.23 1543.09 1606.64 1540.39 1606.64ZM1584.3 1587.08V1606H1575.22V1573.27H1583.87V1579.05H1584.26C1584.98 1577.14 1586.19 1575.64 1587.9 1574.53C1589.6 1573.41 1591.67 1572.85 1594.1 1572.85C1596.37 1572.85 1598.35 1573.34 1600.04 1574.34C1601.73 1575.33 1603.05 1576.75 1603.99 1578.6C1604.92 1580.43 1605.39 1582.62 1605.39 1585.16V1606H1596.32V1586.78C1596.33 1584.78 1595.82 1583.22 1594.78 1582.09C1593.74 1580.96 1592.32 1580.39 1590.5 1580.39C1589.28 1580.39 1588.2 1580.65 1587.26 1581.18C1586.34 1581.7 1585.61 1582.47 1585.09 1583.48C1584.58 1584.47 1584.31 1585.67 1584.3 1587.08ZM1627.46 1606.64C1624.09 1606.64 1621.2 1605.96 1618.77 1604.59C1616.35 1603.22 1614.49 1601.27 1613.19 1598.76C1611.88 1596.23 1611.22 1593.24 1611.22 1589.79C1611.22 1586.42 1611.88 1583.46 1613.19 1580.92C1614.49 1578.38 1616.33 1576.4 1618.7 1574.98C1621.09 1573.56 1623.89 1572.85 1627.1 1572.85C1629.26 1572.85 1631.27 1573.19 1633.13 1573.89C1635 1574.57 1636.64 1575.6 1638.03 1576.98C1639.44 1578.36 1640.53 1580.09 1641.31 1582.18C1642.09 1584.25 1642.48 1586.68 1642.48 1589.47V1591.96H1614.85V1586.33H1633.94C1633.94 1585.03 1633.65 1583.87 1633.09 1582.86C1632.52 1581.85 1631.73 1581.06 1630.72 1580.5C1629.73 1579.91 1628.57 1579.62 1627.25 1579.62C1625.87 1579.62 1624.65 1579.94 1623.58 1580.58C1622.53 1581.21 1621.71 1582.05 1621.11 1583.12C1620.51 1584.17 1620.21 1585.34 1620.2 1586.63V1591.98C1620.2 1593.6 1620.49 1595 1621.09 1596.18C1621.7 1597.36 1622.56 1598.27 1623.67 1598.9C1624.78 1599.54 1626.09 1599.86 1627.61 1599.86C1628.62 1599.86 1629.54 1599.72 1630.38 1599.44C1631.22 1599.15 1631.94 1598.73 1632.53 1598.16C1633.13 1597.59 1633.58 1596.89 1633.9 1596.07L1642.29 1596.62C1641.86 1598.64 1640.99 1600.4 1639.67 1601.91C1638.36 1603.4 1636.67 1604.57 1634.6 1605.4C1632.54 1606.23 1630.16 1606.64 1627.46 1606.64ZM1655.4 1573.27L1661.41 1584.71L1667.57 1573.27H1676.88L1667.4 1589.64L1677.14 1606H1667.87L1661.41 1594.69L1655.06 1606H1645.69L1655.4 1589.64L1646.03 1573.27H1655.4ZM1699.68 1573.27V1580.09H1679.97V1573.27H1699.68ZM1684.45 1565.43H1693.52V1595.94C1693.52 1596.78 1693.65 1597.43 1693.91 1597.9C1694.16 1598.36 1694.52 1598.68 1694.97 1598.86C1695.44 1599.05 1695.98 1599.14 1696.59 1599.14C1697.02 1599.14 1697.44 1599.1 1697.87 1599.03C1698.3 1598.95 1698.62 1598.88 1698.85 1598.84L1700.28 1605.6C1699.82 1605.74 1699.18 1605.9 1698.36 1606.09C1697.54 1606.28 1696.53 1606.4 1695.35 1606.45C1693.17 1606.53 1691.25 1606.24 1689.6 1605.57C1687.97 1604.91 1686.7 1603.87 1685.79 1602.46C1684.88 1601.06 1684.43 1599.28 1684.45 1597.14V1565.43ZM1724.99 1584.48V1591.68H1705.09V1584.48H1724.99ZM1747.47 1618.95C1744.53 1618.95 1742 1618.55 1739.9 1617.74C1737.81 1616.94 1736.15 1615.86 1734.92 1614.48C1733.68 1613.1 1732.88 1611.55 1732.51 1609.84L1740.9 1608.71C1741.16 1609.36 1741.56 1609.97 1742.12 1610.54C1742.67 1611.11 1743.4 1611.56 1744.31 1611.9C1745.24 1612.26 1746.36 1612.43 1747.68 1612.43C1749.65 1612.43 1751.28 1611.95 1752.56 1610.99C1753.85 1610.03 1754.5 1608.44 1754.5 1606.19V1600.2H1754.11C1753.72 1601.11 1753.12 1601.97 1752.32 1602.78C1751.53 1603.59 1750.51 1604.25 1749.26 1604.76C1748.01 1605.28 1746.51 1605.53 1744.78 1605.53C1742.32 1605.53 1740.09 1604.96 1738.07 1603.83C1736.07 1602.68 1734.47 1600.92 1733.28 1598.56C1732.1 1596.19 1731.51 1593.19 1731.51 1589.57C1731.51 1585.87 1732.11 1582.77 1733.32 1580.28C1734.53 1577.8 1736.13 1575.94 1738.13 1574.7C1740.15 1573.46 1742.36 1572.85 1744.76 1572.85C1746.59 1572.85 1748.13 1573.16 1749.36 1573.78C1750.6 1574.39 1751.59 1575.16 1752.35 1576.09C1753.11 1576.99 1753.7 1577.89 1754.11 1578.77H1754.45V1573.27H1763.47V1606.32C1763.47 1609.1 1762.79 1611.43 1761.42 1613.31C1760.06 1615.18 1758.17 1616.59 1755.75 1617.53C1753.35 1618.48 1750.59 1618.95 1747.47 1618.95ZM1747.66 1598.71C1749.12 1598.71 1750.36 1598.35 1751.37 1597.63C1752.39 1596.89 1753.17 1595.84 1753.71 1594.47C1754.26 1593.1 1754.54 1591.45 1754.54 1589.53C1754.54 1587.61 1754.27 1585.95 1753.73 1584.54C1753.19 1583.12 1752.41 1582.02 1751.39 1581.24C1750.36 1580.46 1749.12 1580.07 1747.66 1580.07C1746.17 1580.07 1744.91 1580.47 1743.89 1581.28C1742.86 1582.08 1742.09 1583.19 1741.56 1584.61C1741.04 1586.03 1740.78 1587.67 1740.78 1589.53C1740.78 1591.42 1741.04 1593.05 1741.56 1594.43C1742.1 1595.79 1742.88 1596.85 1743.89 1597.61C1744.91 1598.34 1746.17 1598.71 1747.66 1598.71ZM1785.61 1606.64C1782.24 1606.64 1779.34 1605.96 1776.91 1604.59C1774.5 1603.22 1772.64 1601.27 1771.33 1598.76C1770.02 1596.23 1769.37 1593.24 1769.37 1589.79C1769.37 1586.42 1770.02 1583.46 1771.33 1580.92C1772.64 1578.38 1774.48 1576.4 1776.85 1574.98C1779.23 1573.56 1782.03 1572.85 1785.24 1572.85C1787.4 1572.85 1789.41 1573.19 1791.27 1573.89C1793.15 1574.57 1794.78 1575.6 1796.17 1576.98C1797.58 1578.36 1798.67 1580.09 1799.45 1582.18C1800.24 1584.25 1800.63 1586.68 1800.63 1589.47V1591.96H1772.99V1586.33H1792.08C1792.08 1585.03 1791.8 1583.87 1791.23 1582.86C1790.66 1581.85 1789.87 1581.06 1788.87 1580.5C1787.87 1579.91 1786.71 1579.62 1785.39 1579.62C1784.01 1579.62 1782.79 1579.94 1781.73 1580.58C1780.68 1581.21 1779.85 1582.05 1779.26 1583.12C1778.66 1584.17 1778.35 1585.34 1778.34 1586.63V1591.98C1778.34 1593.6 1778.64 1595 1779.23 1596.18C1779.85 1597.36 1780.7 1598.27 1781.81 1598.9C1782.92 1599.54 1784.23 1599.86 1785.75 1599.86C1786.76 1599.86 1787.69 1599.72 1788.52 1599.44C1789.36 1599.15 1790.08 1598.73 1790.68 1598.16C1791.27 1597.59 1791.73 1596.89 1792.04 1596.07L1800.43 1596.62C1800.01 1598.64 1799.14 1600.4 1797.81 1601.91C1796.51 1603.4 1794.82 1604.57 1792.74 1605.4C1790.68 1606.23 1788.3 1606.64 1785.61 1606.64ZM1815.63 1587.08V1606H1806.55V1573.27H1815.2V1579.05H1815.58C1816.31 1577.14 1817.52 1575.64 1819.23 1574.53C1820.93 1573.41 1823 1572.85 1825.43 1572.85C1827.7 1572.85 1829.68 1573.34 1831.37 1574.34C1833.06 1575.33 1834.38 1576.75 1835.31 1578.6C1836.25 1580.43 1836.72 1582.62 1836.72 1585.16V1606H1827.64V1586.78C1827.66 1584.78 1827.15 1583.22 1826.11 1582.09C1825.07 1580.96 1823.65 1580.39 1821.83 1580.39C1820.61 1580.39 1819.53 1580.65 1818.59 1581.18C1817.66 1581.7 1816.94 1582.47 1816.41 1583.48C1815.9 1584.47 1815.64 1585.67 1815.63 1587.08ZM1884.99 1582.61L1876.68 1583.12C1876.54 1582.41 1876.23 1581.77 1875.77 1581.2C1875.3 1580.62 1874.68 1580.15 1873.91 1579.81C1873.16 1579.46 1872.26 1579.28 1871.21 1579.28C1869.8 1579.28 1868.61 1579.58 1867.65 1580.18C1866.68 1580.76 1866.2 1581.54 1866.2 1582.52C1866.2 1583.3 1866.51 1583.96 1867.14 1584.5C1867.76 1585.04 1868.83 1585.47 1870.35 1585.8L1876.28 1586.99C1879.46 1587.65 1881.83 1588.7 1883.39 1590.15C1884.96 1591.6 1885.74 1593.5 1885.74 1595.86C1885.74 1598 1885.1 1599.88 1883.84 1601.5C1882.59 1603.12 1880.87 1604.39 1878.68 1605.3C1876.51 1606.19 1874 1606.64 1871.16 1606.64C1866.83 1606.64 1863.38 1605.74 1860.81 1603.93C1858.25 1602.12 1856.75 1599.64 1856.31 1596.52L1865.24 1596.05C1865.51 1597.37 1866.16 1598.38 1867.2 1599.08C1868.24 1599.76 1869.56 1600.1 1871.18 1600.1C1872.78 1600.1 1874.05 1599.79 1875.02 1599.18C1876 1598.56 1876.5 1597.75 1876.51 1596.77C1876.5 1595.95 1876.15 1595.28 1875.47 1594.75C1874.78 1594.21 1873.73 1593.8 1872.31 1593.51L1866.65 1592.38C1863.45 1591.75 1861.07 1590.64 1859.51 1589.06C1857.96 1587.48 1857.19 1585.47 1857.19 1583.03C1857.19 1580.93 1857.75 1579.12 1858.89 1577.6C1860.04 1576.08 1861.65 1574.91 1863.73 1574.08C1865.81 1573.26 1868.26 1572.85 1871.06 1572.85C1875.19 1572.85 1878.44 1573.72 1880.81 1575.47C1883.2 1577.21 1884.59 1579.59 1884.99 1582.61ZM1906.24 1606.64C1902.93 1606.64 1900.07 1605.94 1897.65 1604.53C1895.25 1603.11 1893.4 1601.13 1892.09 1598.61C1890.78 1596.06 1890.13 1593.12 1890.13 1589.76C1890.13 1586.38 1890.78 1583.43 1892.09 1580.9C1893.4 1578.36 1895.25 1576.38 1897.65 1574.98C1900.07 1573.56 1902.93 1572.85 1906.24 1572.85C1909.55 1572.85 1912.4 1573.56 1914.8 1574.98C1917.22 1576.38 1919.08 1578.36 1920.39 1580.9C1921.69 1583.43 1922.35 1586.38 1922.35 1589.76C1922.35 1593.12 1921.69 1596.06 1920.39 1598.61C1919.08 1601.13 1917.22 1603.11 1914.8 1604.53C1912.4 1605.94 1909.55 1606.64 1906.24 1606.64ZM1906.28 1599.61C1907.79 1599.61 1909.04 1599.18 1910.05 1598.33C1911.06 1597.46 1911.82 1596.28 1912.33 1594.79C1912.86 1593.3 1913.12 1591.6 1913.12 1589.7C1913.12 1587.8 1912.86 1586.1 1912.33 1584.61C1911.82 1583.12 1911.06 1581.94 1910.05 1581.07C1909.04 1580.2 1907.79 1579.77 1906.28 1579.77C1904.76 1579.77 1903.48 1580.2 1902.45 1581.07C1901.42 1581.94 1900.65 1583.12 1900.12 1584.61C1899.61 1586.1 1899.36 1587.8 1899.36 1589.7C1899.36 1591.6 1899.61 1593.3 1900.12 1594.79C1900.65 1596.28 1901.42 1597.46 1902.45 1598.33C1903.48 1599.18 1904.76 1599.61 1906.28 1599.61ZM1943.04 1606.64C1939.68 1606.64 1936.8 1605.93 1934.39 1604.51C1931.98 1603.07 1930.14 1601.09 1928.85 1598.54C1927.57 1596 1926.93 1593.07 1926.93 1589.76C1926.93 1586.41 1927.57 1583.47 1928.87 1580.94C1930.17 1578.4 1932.03 1576.42 1934.43 1575C1936.83 1573.56 1939.68 1572.85 1942.99 1572.85C1945.85 1572.85 1948.35 1573.37 1950.49 1574.4C1952.64 1575.44 1954.34 1576.89 1955.59 1578.77C1956.84 1580.64 1957.52 1582.85 1957.65 1585.38H1949.09C1948.85 1583.74 1948.21 1582.43 1947.17 1581.43C1946.15 1580.42 1944.8 1579.92 1943.14 1579.92C1941.74 1579.92 1940.51 1580.3 1939.46 1581.07C1938.42 1581.82 1937.61 1582.92 1937.03 1584.37C1936.45 1585.82 1936.15 1587.58 1936.15 1589.64C1936.15 1591.72 1936.44 1593.5 1937.01 1594.96C1937.59 1596.43 1938.41 1597.54 1939.46 1598.31C1940.51 1599.08 1941.74 1599.46 1943.14 1599.46C1944.18 1599.46 1945.11 1599.25 1945.93 1598.82C1946.77 1598.39 1947.46 1597.78 1948 1596.97C1948.55 1596.14 1948.92 1595.15 1949.09 1594H1957.65C1957.51 1596.5 1956.83 1598.71 1955.61 1600.61C1954.4 1602.5 1952.73 1603.98 1950.6 1605.04C1948.47 1606.11 1945.95 1606.64 1943.04 1606.64ZM1963.46 1606V1573.27H1972.54V1606H1963.46ZM1968.02 1569.05C1966.67 1569.05 1965.52 1568.61 1964.55 1567.71C1963.6 1566.8 1963.12 1565.72 1963.12 1564.45C1963.12 1563.2 1963.6 1562.13 1964.55 1561.23C1965.52 1560.33 1966.67 1559.87 1968.02 1559.87C1969.37 1559.87 1970.52 1560.33 1971.48 1561.23C1972.44 1562.13 1972.92 1563.2 1972.92 1564.45C1972.92 1565.72 1972.44 1566.8 1971.48 1567.71C1970.52 1568.61 1969.37 1569.05 1968.02 1569.05ZM1989.14 1606.62C1987.06 1606.62 1985.2 1606.26 1983.56 1605.53C1981.93 1604.79 1980.64 1603.71 1979.68 1602.27C1978.75 1600.82 1978.28 1599.02 1978.28 1596.86C1978.28 1595.04 1978.61 1593.51 1979.28 1592.28C1979.95 1591.04 1980.86 1590.05 1982.01 1589.3C1983.16 1588.54 1984.46 1587.97 1985.93 1587.59C1987.4 1587.21 1988.95 1586.94 1990.57 1586.78C1992.47 1586.58 1994.01 1586.4 1995.17 1586.23C1996.34 1586.04 1997.18 1585.77 1997.71 1585.42C1998.23 1585.06 1998.5 1584.54 1998.5 1583.84V1583.71C1998.5 1582.36 1998.07 1581.32 1997.22 1580.58C1996.38 1579.84 1995.19 1579.47 1993.64 1579.47C1992.01 1579.47 1990.71 1579.84 1989.74 1580.56C1988.77 1581.27 1988.14 1582.16 1987.82 1583.24L1979.43 1582.56C1979.85 1580.57 1980.69 1578.86 1981.94 1577.41C1983.19 1575.94 1984.8 1574.82 1986.78 1574.04C1988.77 1573.24 1991.07 1572.85 1993.68 1572.85C1995.5 1572.85 1997.24 1573.06 1998.9 1573.49C2000.58 1573.91 2002.06 1574.57 2003.36 1575.47C2004.66 1576.36 2005.69 1577.51 2006.45 1578.92C2007.2 1580.31 2007.57 1581.98 2007.57 1583.93V1606H1998.97V1601.46H1998.71C1998.19 1602.48 1997.48 1603.39 1996.6 1604.17C1995.72 1604.93 1994.66 1605.54 1993.43 1605.98C1992.19 1606.4 1990.76 1606.62 1989.14 1606.62ZM1991.74 1600.35C1993.08 1600.35 1994.26 1600.09 1995.28 1599.57C1996.3 1599.03 1997.11 1598.3 1997.69 1597.39C1998.27 1596.48 1998.56 1595.45 1998.56 1594.3V1590.83C1998.28 1591.01 1997.89 1591.18 1997.39 1591.34C1996.91 1591.48 1996.36 1591.62 1995.75 1591.75C1995.14 1591.86 1994.53 1591.97 1993.92 1592.07C1993.31 1592.15 1992.75 1592.23 1992.25 1592.3C1991.19 1592.46 1990.26 1592.7 1989.46 1593.05C1988.67 1593.39 1988.05 1593.85 1987.61 1594.43C1987.17 1595 1986.95 1595.71 1986.95 1596.56C1986.95 1597.8 1987.4 1598.74 1988.29 1599.39C1989.2 1600.03 1990.35 1600.35 1991.74 1600.35ZM2023.69 1562.36V1606H2014.62V1562.36H2023.69ZM2059.59 1618.95C2056.65 1618.95 2054.13 1618.55 2052.03 1617.74C2049.94 1616.94 2048.28 1615.86 2047.05 1614.48C2045.81 1613.1 2045.01 1611.55 2044.64 1609.84L2053.03 1608.71C2053.29 1609.36 2053.69 1609.97 2054.25 1610.54C2054.8 1611.11 2055.53 1611.56 2056.44 1611.9C2057.36 1612.26 2058.49 1612.43 2059.81 1612.43C2061.78 1612.43 2063.41 1611.95 2064.69 1610.99C2065.98 1610.03 2066.63 1608.44 2066.63 1606.19V1600.2H2066.24C2065.84 1601.11 2065.25 1601.97 2064.45 1602.78C2063.66 1603.59 2062.63 1604.25 2061.38 1604.76C2060.13 1605.28 2058.64 1605.53 2056.91 1605.53C2054.45 1605.53 2052.22 1604.96 2050.2 1603.83C2048.2 1602.68 2046.6 1600.92 2045.4 1598.56C2044.23 1596.19 2043.64 1593.19 2043.64 1589.57C2043.64 1585.87 2044.24 1582.77 2045.45 1580.28C2046.65 1577.8 2048.26 1575.94 2050.26 1574.7C2052.28 1573.46 2054.49 1572.85 2056.89 1572.85C2058.72 1572.85 2060.26 1573.16 2061.49 1573.78C2062.73 1574.39 2063.72 1575.16 2064.47 1576.09C2065.24 1576.99 2065.83 1577.89 2066.24 1578.77H2066.58V1573.27H2075.6V1606.32C2075.6 1609.1 2074.91 1611.43 2073.55 1613.31C2072.19 1615.18 2070.3 1616.59 2067.88 1617.53C2065.48 1618.48 2062.72 1618.95 2059.59 1618.95ZM2059.79 1598.71C2061.25 1598.71 2062.49 1598.35 2063.49 1597.63C2064.52 1596.89 2065.3 1595.84 2065.84 1594.47C2066.39 1593.1 2066.67 1591.45 2066.67 1589.53C2066.67 1587.61 2066.4 1585.95 2065.86 1584.54C2065.32 1583.12 2064.54 1582.02 2063.52 1581.24C2062.49 1580.46 2061.25 1580.07 2059.79 1580.07C2058.3 1580.07 2057.04 1580.47 2056.02 1581.28C2054.99 1582.08 2054.22 1583.19 2053.69 1584.61C2053.17 1586.03 2052.9 1587.67 2052.9 1589.53C2052.9 1591.42 2053.17 1593.05 2053.69 1594.43C2054.23 1595.79 2055.01 1596.85 2056.02 1597.61C2057.04 1598.34 2058.3 1598.71 2059.79 1598.71ZM2082.82 1606V1573.27H2091.62V1578.98H2091.96C2092.56 1576.95 2093.56 1575.42 2094.96 1574.38C2096.37 1573.33 2097.99 1572.8 2099.82 1572.8C2100.28 1572.8 2100.77 1572.83 2101.29 1572.89C2101.82 1572.95 2102.28 1573.02 2102.68 1573.12V1581.18C2102.25 1581.05 2101.66 1580.94 2100.91 1580.84C2100.16 1580.74 2099.47 1580.69 2098.84 1580.69C2097.51 1580.69 2096.31 1580.98 2095.26 1581.56C2094.23 1582.13 2093.4 1582.92 2092.79 1583.95C2092.19 1584.97 2091.9 1586.15 2091.9 1587.48V1606H2082.82ZM2115.77 1606.62C2113.68 1606.62 2111.82 1606.26 2110.18 1605.53C2108.55 1604.79 2107.26 1603.71 2106.3 1602.27C2105.37 1600.82 2104.9 1599.02 2104.9 1596.86C2104.9 1595.04 2105.23 1593.51 2105.9 1592.28C2106.57 1591.04 2107.48 1590.05 2108.63 1589.3C2109.78 1588.54 2111.08 1587.97 2112.55 1587.59C2114.03 1587.21 2115.57 1586.94 2117.19 1586.78C2119.1 1586.58 2120.63 1586.4 2121.79 1586.23C2122.96 1586.04 2123.8 1585.77 2124.33 1585.42C2124.86 1585.06 2125.12 1584.54 2125.12 1583.84V1583.71C2125.12 1582.36 2124.69 1581.32 2123.84 1580.58C2123 1579.84 2121.81 1579.47 2120.26 1579.47C2118.63 1579.47 2117.33 1579.84 2116.36 1580.56C2115.4 1581.27 2114.76 1582.16 2114.44 1583.24L2106.05 1582.56C2106.48 1580.57 2107.31 1578.86 2108.56 1577.41C2109.81 1575.94 2111.43 1574.82 2113.4 1574.04C2115.39 1573.24 2117.69 1572.85 2120.3 1572.85C2122.12 1572.85 2123.86 1573.06 2125.52 1573.49C2127.2 1573.91 2128.68 1574.57 2129.98 1575.47C2131.28 1576.36 2132.31 1577.51 2133.07 1578.92C2133.82 1580.31 2134.2 1581.98 2134.2 1583.93V1606H2125.59V1601.46H2125.33C2124.81 1602.48 2124.1 1603.39 2123.22 1604.17C2122.34 1604.93 2121.28 1605.54 2120.05 1605.98C2118.81 1606.4 2117.38 1606.62 2115.77 1606.62ZM2118.36 1600.35C2119.7 1600.35 2120.88 1600.09 2121.9 1599.57C2122.92 1599.03 2123.73 1598.3 2124.31 1597.39C2124.89 1596.48 2125.18 1595.45 2125.18 1594.3V1590.83C2124.9 1591.01 2124.51 1591.18 2124.01 1591.34C2123.53 1591.48 2122.98 1591.62 2122.37 1591.75C2121.76 1591.86 2121.15 1591.97 2120.54 1592.07C2119.93 1592.15 2119.37 1592.23 2118.88 1592.3C2117.81 1592.46 2116.88 1592.7 2116.08 1593.05C2115.29 1593.39 2114.67 1593.85 2114.23 1594.43C2113.79 1595 2113.57 1595.71 2113.57 1596.56C2113.57 1597.8 2114.02 1598.74 2114.91 1599.39C2115.82 1600.03 2116.97 1600.35 2118.36 1600.35ZM2141.24 1618.27V1573.27H2150.19V1578.77H2150.59C2150.99 1577.89 2151.56 1576.99 2152.32 1576.09C2153.08 1575.16 2154.08 1574.39 2155.3 1573.78C2156.54 1573.16 2158.07 1572.85 2159.9 1572.85C2162.29 1572.85 2164.49 1573.47 2166.51 1574.72C2168.52 1575.96 2170.14 1577.83 2171.34 1580.33C2172.55 1582.81 2173.16 1585.93 2173.16 1589.68C2173.16 1593.33 2172.57 1596.41 2171.39 1598.93C2170.22 1601.43 2168.63 1603.32 2166.61 1604.62C2164.61 1605.89 2162.37 1606.53 2159.88 1606.53C2158.12 1606.53 2156.62 1606.24 2155.39 1605.66C2154.16 1605.08 2153.16 1604.35 2152.38 1603.46C2151.6 1602.57 2151 1601.67 2150.59 1600.76H2150.31V1618.27H2141.24ZM2150.12 1589.64C2150.12 1591.58 2150.39 1593.28 2150.93 1594.73C2151.47 1596.18 2152.25 1597.31 2153.28 1598.12C2154.3 1598.91 2155.54 1599.31 2157 1599.31C2158.48 1599.31 2159.73 1598.9 2160.75 1598.1C2161.78 1597.27 2162.55 1596.13 2163.08 1594.69C2163.62 1593.22 2163.89 1591.54 2163.89 1589.64C2163.89 1587.75 2163.62 1586.09 2163.1 1584.65C2162.57 1583.22 2161.8 1582.09 2160.78 1581.28C2159.75 1580.47 2158.5 1580.07 2157 1580.07C2155.53 1580.07 2154.28 1580.46 2153.25 1581.24C2152.25 1582.02 2151.47 1583.13 2150.93 1584.57C2150.39 1586 2150.12 1587.69 2150.12 1589.64ZM2188.28 1587.08V1606H2179.21V1562.36H2188.03V1579.05H2188.41C2189.15 1577.12 2190.34 1575.6 2191.99 1574.51C2193.64 1573.4 2195.7 1572.85 2198.19 1572.85C2200.46 1572.85 2202.44 1573.34 2204.14 1574.34C2205.84 1575.32 2207.16 1576.73 2208.1 1578.58C2209.05 1580.41 2209.52 1582.61 2209.5 1585.16V1606H2200.43V1586.78C2200.44 1584.76 2199.93 1583.19 2198.89 1582.07C2197.87 1580.95 2196.44 1580.39 2194.59 1580.39C2193.35 1580.39 2192.26 1580.65 2191.31 1581.18C2190.37 1581.7 2189.63 1582.47 2189.09 1583.48C2188.57 1584.47 2188.3 1585.67 2188.28 1587.08ZM2221.95 1606.55C2220.55 1606.55 2219.34 1606.06 2218.33 1605.06C2217.34 1604.05 2216.84 1602.85 2216.84 1601.44C2216.84 1600.05 2217.34 1598.86 2218.33 1597.86C2219.34 1596.87 2220.55 1596.37 2221.95 1596.37C2223.32 1596.37 2224.51 1596.87 2225.53 1597.86C2226.56 1598.86 2227.07 1600.05 2227.07 1601.44C2227.07 1602.38 2226.83 1603.24 2226.34 1604.02C2225.87 1604.79 2225.26 1605.4 2224.49 1605.87C2223.72 1606.33 2222.88 1606.55 2221.95 1606.55Z" fill="white"/>
<path d="M364.776 1582.61L356.466 1583.12C356.324 1582.41 356.019 1581.77 355.55 1581.2C355.081 1580.62 354.464 1580.15 353.697 1579.81C352.944 1579.46 352.042 1579.28 350.991 1579.28C349.584 1579.28 348.398 1579.58 347.432 1580.18C346.466 1580.76 345.983 1581.54 345.983 1582.52C345.983 1583.3 346.296 1583.96 346.921 1584.5C347.546 1585.04 348.618 1585.47 350.138 1585.8L356.062 1586.99C359.243 1587.65 361.616 1588.7 363.178 1590.15C364.741 1591.6 365.522 1593.5 365.522 1595.86C365.522 1598 364.89 1599.88 363.626 1601.5C362.376 1603.12 360.657 1604.39 358.469 1605.3C356.296 1606.19 353.789 1606.64 350.948 1606.64C346.616 1606.64 343.164 1605.74 340.593 1603.93C338.036 1602.12 336.537 1599.64 336.097 1596.52L345.025 1596.05C345.295 1597.37 345.948 1598.38 346.985 1599.08C348.022 1599.76 349.35 1600.1 350.969 1600.1C352.56 1600.1 353.839 1599.79 354.805 1599.18C355.785 1598.56 356.282 1597.75 356.296 1596.77C356.282 1595.95 355.934 1595.28 355.252 1594.75C354.57 1594.21 353.519 1593.8 352.099 1593.51L346.431 1592.38C343.235 1591.75 340.856 1590.64 339.293 1589.06C337.745 1587.48 336.971 1585.47 336.971 1583.03C336.971 1580.93 337.539 1579.12 338.675 1577.6C339.826 1576.08 341.438 1574.91 343.512 1574.08C345.6 1573.26 348.043 1572.85 350.841 1572.85C354.975 1572.85 358.228 1573.72 360.6 1575.47C362.986 1577.21 364.378 1579.59 364.776 1582.61ZM386.024 1606.64C382.672 1606.64 379.789 1605.93 377.374 1604.51C374.973 1603.07 373.127 1601.09 371.834 1598.54C370.556 1596 369.916 1593.07 369.916 1589.76C369.916 1586.41 370.563 1583.47 371.855 1580.94C373.162 1578.4 375.016 1576.42 377.416 1575C379.817 1573.56 382.672 1572.85 385.982 1572.85C388.837 1572.85 391.337 1573.37 393.482 1574.4C395.627 1575.44 397.324 1576.89 398.574 1578.77C399.824 1580.64 400.513 1582.85 400.641 1585.38H392.075C391.834 1583.74 391.195 1582.43 390.158 1581.43C389.135 1580.42 387.793 1579.92 386.131 1579.92C384.725 1579.92 383.496 1580.3 382.445 1581.07C381.408 1581.82 380.598 1582.92 380.016 1584.37C379.433 1585.82 379.142 1587.58 379.142 1589.64C379.142 1591.72 379.426 1593.5 379.994 1594.96C380.577 1596.43 381.394 1597.54 382.445 1598.31C383.496 1599.08 384.725 1599.46 386.131 1599.46C387.168 1599.46 388.098 1599.25 388.922 1598.82C389.76 1598.39 390.449 1597.78 390.989 1596.97C391.543 1596.14 391.905 1595.15 392.075 1594H400.641C400.499 1596.5 399.817 1598.71 398.595 1600.61C397.388 1602.5 395.719 1603.98 393.588 1605.04C391.458 1606.11 388.936 1606.64 386.024 1606.64ZM415.785 1606.62C413.697 1606.62 411.836 1606.26 410.202 1605.53C408.569 1604.79 407.276 1603.71 406.324 1602.27C405.387 1600.82 404.918 1599.02 404.918 1596.86C404.918 1595.04 405.252 1593.51 405.92 1592.28C406.587 1591.04 407.496 1590.05 408.647 1589.3C409.797 1588.54 411.104 1587.97 412.567 1587.59C414.045 1587.21 415.593 1586.94 417.212 1586.78C419.116 1586.58 420.65 1586.4 421.814 1586.23C422.979 1586.04 423.824 1585.77 424.35 1585.42C424.876 1585.06 425.138 1584.54 425.138 1583.84V1583.71C425.138 1582.36 424.712 1581.32 423.86 1580.58C423.022 1579.84 421.829 1579.47 420.28 1579.47C418.647 1579.47 417.347 1579.84 416.381 1580.56C415.415 1581.27 414.776 1582.16 414.464 1583.24L406.069 1582.56C406.495 1580.57 407.333 1578.86 408.583 1577.41C409.833 1575.94 411.445 1574.82 413.42 1574.04C415.408 1573.24 417.709 1572.85 420.323 1572.85C422.141 1572.85 423.881 1573.06 425.543 1573.49C427.219 1573.91 428.704 1574.57 429.996 1575.47C431.303 1576.36 432.333 1577.51 433.086 1578.92C433.839 1580.31 434.215 1581.98 434.215 1583.93V1606H425.607V1601.46H425.351C424.826 1602.48 424.123 1603.39 423.242 1604.17C422.361 1604.93 421.303 1605.54 420.067 1605.98C418.831 1606.4 417.404 1606.62 415.785 1606.62ZM418.384 1600.35C419.719 1600.35 420.898 1600.09 421.921 1599.57C422.944 1599.03 423.746 1598.3 424.329 1597.39C424.911 1596.48 425.202 1595.45 425.202 1594.3V1590.83C424.918 1591.01 424.528 1591.18 424.03 1591.34C423.547 1591.48 423.001 1591.62 422.39 1591.75C421.779 1591.86 421.168 1591.97 420.557 1592.07C419.947 1592.15 419.393 1592.23 418.895 1592.3C417.83 1592.46 416.9 1592.7 416.104 1593.05C415.309 1593.39 414.691 1593.85 414.251 1594.43C413.81 1595 413.59 1595.71 413.59 1596.56C413.59 1597.8 414.037 1598.74 414.932 1599.39C415.841 1600.03 416.992 1600.35 418.384 1600.35ZM450.334 1562.36V1606H441.257V1562.36H450.334ZM466.937 1606.62C464.849 1606.62 462.988 1606.26 461.355 1605.53C459.721 1604.79 458.428 1603.71 457.477 1602.27C456.539 1600.82 456.07 1599.02 456.07 1596.86C456.07 1595.04 456.404 1593.51 457.072 1592.28C457.74 1591.04 458.649 1590.05 459.799 1589.3C460.95 1588.54 462.257 1587.97 463.72 1587.59C465.197 1587.21 466.745 1586.94 468.365 1586.78C470.268 1586.58 471.802 1586.4 472.967 1586.23C474.132 1586.04 474.977 1585.77 475.502 1585.42C476.028 1585.06 476.291 1584.54 476.291 1583.84V1583.71C476.291 1582.36 475.865 1581.32 475.012 1580.58C474.174 1579.84 472.981 1579.47 471.433 1579.47C469.799 1579.47 468.499 1579.84 467.534 1580.56C466.568 1581.27 465.928 1582.16 465.616 1583.24L457.221 1582.56C457.647 1580.57 458.485 1578.86 459.735 1577.41C460.985 1575.94 462.597 1574.82 464.572 1574.04C466.561 1573.24 468.862 1572.85 471.475 1572.85C473.294 1572.85 475.034 1573.06 476.695 1573.49C478.372 1573.91 479.856 1574.57 481.149 1575.47C482.455 1576.36 483.485 1577.51 484.238 1578.92C484.991 1580.31 485.367 1581.98 485.367 1583.93V1606H476.759V1601.46H476.504C475.978 1602.48 475.275 1603.39 474.394 1604.17C473.514 1604.93 472.455 1605.54 471.22 1605.98C469.984 1606.4 468.556 1606.62 466.937 1606.62ZM469.536 1600.35C470.872 1600.35 472.051 1600.09 473.073 1599.57C474.096 1599.03 474.899 1598.3 475.481 1597.39C476.063 1596.48 476.355 1595.45 476.355 1594.3V1590.83C476.07 1591.01 475.68 1591.18 475.183 1591.34C474.7 1591.48 474.153 1591.62 473.542 1591.75C472.931 1591.86 472.32 1591.97 471.71 1592.07C471.099 1592.15 470.545 1592.23 470.048 1592.3C468.982 1592.46 468.052 1592.7 467.257 1593.05C466.461 1593.39 465.843 1593.85 465.403 1594.43C464.963 1595 464.742 1595.71 464.742 1596.56C464.742 1597.8 465.19 1598.74 466.085 1599.39C466.994 1600.03 468.144 1600.35 469.536 1600.35ZM492.58 1606V1562.36H501.656V1578.77H501.933C502.331 1577.89 502.906 1576.99 503.659 1576.09C504.426 1575.16 505.421 1574.39 506.642 1573.78C507.878 1573.16 509.412 1572.85 511.244 1572.85C513.631 1572.85 515.833 1573.47 517.85 1574.72C519.867 1575.96 521.479 1577.83 522.686 1580.33C523.894 1582.81 524.497 1585.93 524.497 1589.68C524.497 1593.33 523.908 1596.41 522.729 1598.93C521.564 1601.43 519.973 1603.32 517.956 1604.62C515.953 1605.89 513.709 1606.53 511.223 1606.53C509.462 1606.53 507.963 1606.24 506.727 1605.66C505.506 1605.08 504.504 1604.35 503.723 1603.46C502.942 1602.57 502.345 1601.67 501.933 1600.76H501.529V1606H492.58ZM501.465 1589.64C501.465 1591.58 501.735 1593.28 502.274 1594.73C502.814 1596.18 503.595 1597.31 504.618 1598.12C505.641 1598.91 506.884 1599.31 508.347 1599.31C509.824 1599.31 511.074 1598.9 512.097 1598.1C513.119 1597.27 513.894 1596.13 514.419 1594.69C514.959 1593.22 515.229 1591.54 515.229 1589.64C515.229 1587.75 514.966 1586.09 514.441 1584.65C513.915 1583.22 513.141 1582.09 512.118 1581.28C511.095 1580.47 509.838 1580.07 508.347 1580.07C506.869 1580.07 505.619 1580.46 504.597 1581.24C503.588 1582.02 502.814 1583.13 502.274 1584.57C501.735 1586 501.465 1587.69 501.465 1589.64ZM539.631 1562.36V1606H530.554V1562.36H539.631ZM561.816 1606.64C558.45 1606.64 555.552 1605.96 553.123 1604.59C550.708 1603.22 548.847 1601.27 547.541 1598.76C546.234 1596.23 545.58 1593.24 545.58 1589.79C545.58 1586.42 546.234 1583.46 547.541 1580.92C548.847 1578.38 550.687 1576.4 553.059 1574.98C555.445 1573.56 558.244 1572.85 561.454 1572.85C563.613 1572.85 565.623 1573.19 567.484 1573.89C569.359 1574.57 570.992 1575.6 572.384 1576.98C573.791 1578.36 574.884 1580.09 575.666 1582.18C576.447 1584.25 576.838 1586.68 576.838 1589.47V1591.96H549.203V1586.33H568.294C568.294 1585.03 568.009 1583.87 567.441 1582.86C566.873 1581.85 566.085 1581.06 565.076 1580.5C564.082 1579.91 562.924 1579.62 561.603 1579.62C560.225 1579.62 559.004 1579.94 557.938 1580.58C556.887 1581.21 556.063 1582.05 555.467 1583.12C554.87 1584.17 554.565 1585.34 554.551 1586.63V1591.98C554.551 1593.6 554.849 1595 555.445 1596.18C556.056 1597.36 556.916 1598.27 558.024 1598.9C559.132 1599.54 560.445 1599.86 561.965 1599.86C562.974 1599.86 563.897 1599.72 564.735 1599.44C565.573 1599.15 566.291 1598.73 566.887 1598.16C567.484 1597.59 567.938 1596.89 568.251 1596.07L576.646 1596.62C576.22 1598.64 575.346 1600.4 574.025 1601.91C572.718 1603.4 571.028 1604.57 568.954 1605.4C566.894 1606.23 564.515 1606.64 561.816 1606.64ZM612.287 1606H596.818V1562.36H612.415C616.804 1562.36 620.582 1563.24 623.75 1564.98C626.917 1566.72 629.354 1569.21 631.058 1572.46C632.777 1575.72 633.636 1579.61 633.636 1584.14C633.636 1588.68 632.777 1592.59 631.058 1595.86C629.354 1599.12 626.903 1601.63 623.707 1603.38C620.525 1605.13 616.719 1606 612.287 1606ZM606.044 1598.1H611.903C614.631 1598.1 616.925 1597.61 618.785 1596.65C620.66 1595.67 622.067 1594.15 623.004 1592.11C623.956 1590.05 624.432 1587.39 624.432 1584.14C624.432 1580.91 623.956 1578.28 623.004 1576.23C622.067 1574.19 620.667 1572.68 618.807 1571.72C616.946 1570.75 614.652 1570.27 611.925 1570.27H606.044V1598.1ZM649.696 1562.36V1606H640.47V1562.36H649.696ZM672.756 1606H657.287V1562.36H672.883C677.273 1562.36 681.051 1563.24 684.219 1564.98C687.386 1566.72 689.822 1569.21 691.527 1572.46C693.246 1575.72 694.105 1579.61 694.105 1584.14C694.105 1588.68 693.246 1592.59 691.527 1595.86C689.822 1599.12 687.372 1601.63 684.176 1603.38C680.994 1605.13 677.187 1606 672.756 1606ZM666.513 1598.1H672.372C675.099 1598.1 677.393 1597.61 679.254 1596.65C681.129 1595.67 682.535 1594.15 683.473 1592.11C684.425 1590.05 684.9 1587.39 684.9 1584.14C684.9 1580.91 684.425 1578.28 683.473 1576.23C682.535 1574.19 681.136 1572.68 679.275 1571.72C677.415 1570.75 675.121 1570.27 672.393 1570.27H666.513V1598.1ZM726.715 1606.53C724.229 1606.53 721.978 1605.89 719.961 1604.62C717.958 1603.32 716.367 1601.43 715.188 1598.93C714.023 1596.41 713.441 1593.33 713.441 1589.68C713.441 1585.93 714.045 1582.81 715.252 1580.33C716.459 1577.83 718.064 1575.96 720.067 1574.72C722.084 1573.47 724.293 1572.85 726.694 1572.85C728.526 1572.85 730.053 1573.16 731.275 1573.78C732.51 1574.39 733.505 1575.16 734.258 1576.09C735.025 1576.99 735.607 1577.89 736.005 1578.77H736.282V1562.36H745.337V1606H736.388V1600.76H736.005C735.579 1601.67 734.975 1602.57 734.194 1603.46C733.427 1604.35 732.425 1605.08 731.189 1605.66C729.968 1606.24 728.476 1606.53 726.715 1606.53ZM729.591 1599.31C731.055 1599.31 732.29 1598.91 733.299 1598.12C734.322 1597.31 735.103 1596.18 735.643 1594.73C736.197 1593.28 736.474 1591.58 736.474 1589.64C736.474 1587.69 736.204 1586 735.664 1584.57C735.124 1583.13 734.343 1582.02 733.32 1581.24C732.297 1580.46 731.055 1580.07 729.591 1580.07C728.1 1580.07 726.843 1580.47 725.82 1581.28C724.797 1582.09 724.023 1583.22 723.498 1584.65C722.972 1586.09 722.709 1587.75 722.709 1589.64C722.709 1591.54 722.972 1593.22 723.498 1594.69C724.037 1596.13 724.812 1597.27 725.82 1598.1C726.843 1598.9 728.1 1599.31 729.591 1599.31ZM762.132 1606.62C760.044 1606.62 758.183 1606.26 756.55 1605.53C754.916 1604.79 753.624 1603.71 752.672 1602.27C751.735 1600.82 751.266 1599.02 751.266 1596.86C751.266 1595.04 751.6 1593.51 752.267 1592.28C752.935 1591.04 753.844 1590.05 754.994 1589.3C756.145 1588.54 757.452 1587.97 758.915 1587.59C760.392 1587.21 761.941 1586.94 763.56 1586.78C765.463 1586.58 766.997 1586.4 768.162 1586.23C769.327 1586.04 770.172 1585.77 770.698 1585.42C771.223 1585.06 771.486 1584.54 771.486 1583.84V1583.71C771.486 1582.36 771.06 1581.32 770.208 1580.58C769.369 1579.84 768.176 1579.47 766.628 1579.47C764.994 1579.47 763.695 1579.84 762.729 1580.56C761.763 1581.27 761.124 1582.16 760.811 1583.24L752.416 1582.56C752.843 1580.57 753.681 1578.86 754.931 1577.41C756.181 1575.94 757.793 1574.82 759.767 1574.04C761.756 1573.24 764.057 1572.85 766.671 1572.85C768.489 1572.85 770.229 1573.06 771.891 1573.49C773.567 1573.91 775.051 1574.57 776.344 1575.47C777.651 1576.36 778.681 1577.51 779.433 1578.92C780.186 1580.31 780.563 1581.98 780.563 1583.93V1606H771.955V1601.46H771.699C771.173 1602.48 770.47 1603.39 769.59 1604.17C768.709 1604.93 767.651 1605.54 766.415 1605.98C765.179 1606.4 763.752 1606.62 762.132 1606.62ZM764.732 1600.35C766.067 1600.35 767.246 1600.09 768.269 1599.57C769.291 1599.03 770.094 1598.3 770.676 1597.39C771.259 1596.48 771.55 1595.45 771.55 1594.3V1590.83C771.266 1591.01 770.875 1591.18 770.378 1591.34C769.895 1591.48 769.348 1591.62 768.737 1591.75C768.127 1591.86 767.516 1591.97 766.905 1592.07C766.294 1592.15 765.74 1592.23 765.243 1592.3C764.178 1592.46 763.247 1592.7 762.452 1593.05C761.656 1593.39 761.039 1593.85 760.598 1594.43C760.158 1595 759.938 1595.71 759.938 1596.56C759.938 1597.8 760.385 1598.74 761.28 1599.39C762.189 1600.03 763.34 1600.35 764.732 1600.35ZM805.012 1573.27V1580.09H785.303V1573.27H805.012ZM789.778 1565.43H798.855V1595.94C798.855 1596.78 798.982 1597.43 799.238 1597.9C799.494 1598.36 799.849 1598.68 800.303 1598.86C800.772 1599.05 801.312 1599.14 801.923 1599.14C802.349 1599.14 802.775 1599.1 803.201 1599.03C803.627 1598.95 803.954 1598.88 804.181 1598.84L805.609 1605.6C805.154 1605.74 804.515 1605.9 803.691 1606.09C802.867 1606.28 801.866 1606.4 800.687 1606.45C798.499 1606.53 796.582 1606.24 794.934 1605.57C793.301 1604.91 792.029 1603.87 791.12 1602.46C790.211 1601.06 789.764 1599.28 789.778 1597.14V1565.43ZM820.257 1606.62C818.169 1606.62 816.308 1606.26 814.675 1605.53C813.041 1604.79 811.749 1603.71 810.797 1602.27C809.86 1600.82 809.391 1599.02 809.391 1596.86C809.391 1595.04 809.725 1593.51 810.392 1592.28C811.06 1591.04 811.969 1590.05 813.119 1589.3C814.27 1588.54 815.577 1587.97 817.04 1587.59C818.517 1587.21 820.066 1586.94 821.685 1586.78C823.588 1586.58 825.122 1586.4 826.287 1586.23C827.452 1586.04 828.297 1585.77 828.823 1585.42C829.348 1585.06 829.611 1584.54 829.611 1583.84V1583.71C829.611 1582.36 829.185 1581.32 828.333 1580.58C827.494 1579.84 826.301 1579.47 824.753 1579.47C823.119 1579.47 821.82 1579.84 820.854 1580.56C819.888 1581.27 819.249 1582.16 818.936 1583.24L810.541 1582.56C810.968 1580.57 811.806 1578.86 813.056 1577.41C814.306 1575.94 815.918 1574.82 817.892 1574.04C819.881 1573.24 822.182 1572.85 824.796 1572.85C826.614 1572.85 828.354 1573.06 830.016 1573.49C831.692 1573.91 833.176 1574.57 834.469 1575.47C835.776 1576.36 836.806 1577.51 837.558 1578.92C838.311 1580.31 838.688 1581.98 838.688 1583.93V1606H830.08V1601.46H829.824C829.298 1602.48 828.595 1603.39 827.715 1604.17C826.834 1604.93 825.776 1605.54 824.54 1605.98C823.304 1606.4 821.877 1606.62 820.257 1606.62ZM822.857 1600.35C824.192 1600.35 825.371 1600.09 826.394 1599.57C827.416 1599.03 828.219 1598.3 828.801 1597.39C829.384 1596.48 829.675 1595.45 829.675 1594.3V1590.83C829.391 1591.01 829 1591.18 828.503 1591.34C828.02 1591.48 827.473 1591.62 826.862 1591.75C826.252 1591.86 825.641 1591.97 825.03 1592.07C824.419 1592.15 823.865 1592.23 823.368 1592.3C822.303 1592.46 821.372 1592.7 820.577 1593.05C819.781 1593.39 819.164 1593.85 818.723 1594.43C818.283 1595 818.063 1595.71 818.063 1596.56C818.063 1597.8 818.51 1598.74 819.405 1599.39C820.314 1600.03 821.465 1600.35 822.857 1600.35ZM877.216 1573.27V1580.09H857.017V1573.27H877.216ZM861.64 1606V1570.91C861.64 1568.54 862.102 1566.57 863.025 1565.01C863.963 1563.44 865.241 1562.27 866.861 1561.49C868.48 1560.71 870.319 1560.32 872.379 1560.32C873.771 1560.32 875.042 1560.42 876.193 1560.64C877.358 1560.85 878.224 1561.04 878.792 1561.21L877.173 1568.03C876.818 1567.92 876.378 1567.81 875.852 1567.71C875.341 1567.61 874.815 1567.56 874.275 1567.56C872.94 1567.56 872.01 1567.88 871.484 1568.5C870.959 1569.11 870.696 1569.97 870.696 1571.08V1606H861.64ZM882.761 1606V1573.27H891.561V1578.98H891.901C892.498 1576.95 893.499 1575.42 894.906 1574.38C896.312 1573.33 897.931 1572.8 899.764 1572.8C900.218 1572.8 900.708 1572.83 901.234 1572.89C901.759 1572.95 902.221 1573.02 902.619 1573.12V1581.18C902.193 1581.05 901.603 1580.94 900.85 1580.84C900.097 1580.74 899.409 1580.69 898.784 1580.69C897.448 1580.69 896.255 1580.98 895.204 1581.56C894.167 1582.13 893.343 1582.92 892.732 1583.95C892.136 1584.97 891.838 1586.15 891.838 1587.48V1606H882.761ZM915.706 1606.62C913.618 1606.62 911.758 1606.26 910.124 1605.53C908.491 1604.79 907.198 1603.71 906.246 1602.27C905.309 1600.82 904.84 1599.02 904.84 1596.86C904.84 1595.04 905.174 1593.51 905.841 1592.28C906.509 1591.04 907.418 1590.05 908.569 1589.3C909.719 1588.54 911.026 1587.97 912.489 1587.59C913.966 1587.21 915.515 1586.94 917.134 1586.78C919.037 1586.58 920.572 1586.4 921.736 1586.23C922.901 1586.04 923.746 1585.77 924.272 1585.42C924.797 1585.06 925.06 1584.54 925.06 1583.84V1583.71C925.06 1582.36 924.634 1581.32 923.782 1580.58C922.944 1579.84 921.751 1579.47 920.202 1579.47C918.569 1579.47 917.269 1579.84 916.303 1580.56C915.337 1581.27 914.698 1582.16 914.385 1583.24L905.991 1582.56C906.417 1580.57 907.255 1578.86 908.505 1577.41C909.755 1575.94 911.367 1574.82 913.341 1574.04C915.33 1573.24 917.631 1572.85 920.245 1572.85C922.063 1572.85 923.803 1573.06 925.465 1573.49C927.141 1573.91 928.626 1574.57 929.918 1575.47C931.225 1576.36 932.255 1577.51 933.008 1578.92C933.76 1580.31 934.137 1581.98 934.137 1583.93V1606H925.529V1601.46H925.273C924.748 1602.48 924.045 1603.39 923.164 1604.17C922.283 1604.93 921.225 1605.54 919.989 1605.98C918.753 1606.4 917.326 1606.62 915.706 1606.62ZM918.306 1600.35C919.641 1600.35 920.82 1600.09 921.843 1599.57C922.866 1599.03 923.668 1598.3 924.251 1597.39C924.833 1596.48 925.124 1595.45 925.124 1594.3V1590.83C924.84 1591.01 924.449 1591.18 923.952 1591.34C923.469 1591.48 922.922 1591.62 922.312 1591.75C921.701 1591.86 921.09 1591.97 920.479 1592.07C919.868 1592.15 919.314 1592.23 918.817 1592.3C917.752 1592.46 916.822 1592.7 916.026 1593.05C915.231 1593.39 914.613 1593.85 914.172 1594.43C913.732 1595 913.512 1595.71 913.512 1596.56C913.512 1597.8 913.959 1598.74 914.854 1599.39C915.763 1600.03 916.914 1600.35 918.306 1600.35ZM941.179 1606V1573.27H949.829V1579.05H950.213C950.895 1577.13 952.031 1575.62 953.622 1574.51C955.213 1573.4 957.116 1572.85 959.332 1572.85C961.577 1572.85 963.487 1573.41 965.064 1574.53C966.64 1575.64 967.692 1577.14 968.217 1579.05H968.558C969.226 1577.17 970.433 1575.67 972.18 1574.55C973.942 1573.41 976.023 1572.85 978.423 1572.85C981.477 1572.85 983.956 1573.82 985.859 1575.77C987.777 1577.7 988.736 1580.44 988.736 1583.99V1606H979.68V1585.78C979.68 1583.96 979.197 1582.6 978.231 1581.69C977.265 1580.78 976.058 1580.33 974.609 1580.33C972.961 1580.33 971.676 1580.85 970.753 1581.9C969.829 1582.94 969.368 1584.31 969.368 1586.01V1606H960.568V1585.59C960.568 1583.98 960.106 1582.7 959.183 1581.75C958.274 1580.8 957.074 1580.33 955.582 1580.33C954.574 1580.33 953.665 1580.58 952.855 1581.09C952.059 1581.59 951.427 1582.29 950.959 1583.2C950.49 1584.1 950.256 1585.15 950.256 1586.36V1606H941.179ZM1010.82 1606.64C1007.45 1606.64 1004.56 1605.96 1002.13 1604.59C999.712 1603.22 997.851 1601.27 996.545 1598.76C995.238 1596.23 994.584 1593.24 994.584 1589.79C994.584 1586.42 995.238 1583.46 996.545 1580.92C997.851 1578.38 999.691 1576.4 1002.06 1574.98C1004.45 1573.56 1007.25 1572.85 1010.46 1572.85C1012.62 1572.85 1014.63 1573.19 1016.49 1573.89C1018.36 1574.57 1020 1575.6 1021.39 1576.98C1022.79 1578.36 1023.89 1580.09 1024.67 1582.18C1025.45 1584.25 1025.84 1586.68 1025.84 1589.47V1591.96H998.206V1586.33H1017.3C1017.3 1585.03 1017.01 1583.87 1016.45 1582.86C1015.88 1581.85 1015.09 1581.06 1014.08 1580.5C1013.09 1579.91 1011.93 1579.62 1010.61 1579.62C1009.23 1579.62 1008.01 1579.94 1006.94 1580.58C1005.89 1581.21 1005.07 1582.05 1004.47 1583.12C1003.87 1584.17 1003.57 1585.34 1003.55 1586.63V1591.98C1003.55 1593.6 1003.85 1595 1004.45 1596.18C1005.06 1597.36 1005.92 1598.27 1007.03 1598.9C1008.14 1599.54 1009.45 1599.86 1010.97 1599.86C1011.98 1599.86 1012.9 1599.72 1013.74 1599.44C1014.58 1599.15 1015.29 1598.73 1015.89 1598.16C1016.49 1597.59 1016.94 1596.89 1017.25 1596.07L1025.65 1596.62C1025.22 1598.64 1024.35 1600.4 1023.03 1601.91C1021.72 1603.4 1020.03 1604.57 1017.96 1605.4C1015.9 1606.23 1013.52 1606.64 1010.82 1606.64ZM1037.99 1606L1029.08 1573.27H1038.26L1043.33 1595.26H1043.63L1048.92 1573.27H1057.93L1063.3 1595.13H1063.58L1068.56 1573.27H1077.72L1068.84 1606H1059.23L1053.6 1585.42H1053.2L1047.57 1606H1037.99ZM1096.53 1606.64C1093.22 1606.64 1090.36 1605.94 1087.95 1604.53C1085.54 1603.11 1083.69 1601.13 1082.38 1598.61C1081.08 1596.06 1080.42 1593.12 1080.42 1589.76C1080.42 1586.38 1081.08 1583.43 1082.38 1580.9C1083.69 1578.36 1085.54 1576.38 1087.95 1574.98C1090.36 1573.56 1093.22 1572.85 1096.53 1572.85C1099.84 1572.85 1102.7 1573.56 1105.1 1574.98C1107.51 1576.38 1109.37 1578.36 1110.68 1580.9C1111.99 1583.43 1112.64 1586.38 1112.64 1589.76C1112.64 1593.12 1111.99 1596.06 1110.68 1598.61C1109.37 1601.13 1107.51 1603.11 1105.1 1604.53C1102.7 1605.94 1099.84 1606.64 1096.53 1606.64ZM1096.57 1599.61C1098.08 1599.61 1099.34 1599.18 1100.35 1598.33C1101.35 1597.46 1102.11 1596.28 1102.63 1594.79C1103.15 1593.3 1103.41 1591.6 1103.41 1589.7C1103.41 1587.8 1103.15 1586.1 1102.63 1584.61C1102.11 1583.12 1101.35 1581.94 1100.35 1581.07C1099.34 1580.2 1098.08 1579.77 1096.57 1579.77C1095.05 1579.77 1093.78 1580.2 1092.74 1581.07C1091.72 1581.94 1090.94 1583.12 1090.42 1584.61C1089.91 1586.1 1089.65 1587.8 1089.65 1589.7C1089.65 1591.6 1089.91 1593.3 1090.42 1594.79C1090.94 1596.28 1091.72 1597.46 1092.74 1598.33C1093.78 1599.18 1095.05 1599.61 1096.57 1599.61ZM1118.54 1606V1573.27H1127.34V1578.98H1127.68C1128.28 1576.95 1129.28 1575.42 1130.69 1574.38C1132.09 1573.33 1133.71 1572.8 1135.54 1572.8C1136 1572.8 1136.49 1572.83 1137.02 1572.89C1137.54 1572.95 1138 1573.02 1138.4 1573.12V1581.18C1137.97 1581.05 1137.38 1580.94 1136.63 1580.84C1135.88 1580.74 1135.19 1580.69 1134.56 1580.69C1133.23 1580.69 1132.04 1580.98 1130.99 1581.56C1129.95 1582.13 1129.12 1582.92 1128.51 1583.95C1127.92 1584.97 1127.62 1586.15 1127.62 1587.48V1606H1118.54ZM1151.32 1596.58L1151.34 1585.69H1152.66L1163.14 1573.27H1173.56L1159.48 1589.72H1157.33L1151.32 1596.58ZM1143.09 1606V1562.36H1152.17V1606H1143.09ZM1163.55 1606L1153.92 1591.75L1159.97 1585.33L1174.18 1606H1163.55Z" fill="url(#paint2_linear_719_122)"/>
</g>
<g filter="url(#filter1_d_719_122)">
<path d="M137.793 314V270.364H147.018V288.368H165.747V270.364H174.952V314H165.747V295.974H147.018V314H137.793ZM187.991 326.273C186.841 326.273 185.761 326.18 184.753 325.996C183.759 325.825 182.935 325.605 182.281 325.335L184.327 318.56C185.392 318.886 186.351 319.064 187.203 319.092C188.07 319.121 188.815 318.922 189.44 318.496C190.08 318.07 190.598 317.345 190.996 316.322L191.528 314.938L179.788 281.273H189.334L196.109 305.307H196.45L203.29 281.273H212.899L200.179 317.537C199.568 319.298 198.737 320.832 197.686 322.139C196.649 323.46 195.335 324.476 193.744 325.186C192.153 325.911 190.236 326.273 187.991 326.273ZM217.544 326.273V281.273H226.493V286.77H226.898C227.295 285.889 227.871 284.994 228.624 284.085C229.391 283.162 230.385 282.395 231.607 281.784C232.842 281.159 234.376 280.847 236.209 280.847C238.595 280.847 240.797 281.472 242.814 282.722C244.831 283.957 246.443 285.825 247.651 288.325C248.858 290.811 249.462 293.929 249.462 297.679C249.462 301.33 248.872 304.412 247.693 306.926C246.528 309.426 244.938 311.322 242.92 312.615C240.918 313.893 238.673 314.533 236.188 314.533C234.426 314.533 232.928 314.241 231.692 313.659C230.47 313.077 229.469 312.345 228.688 311.464C227.906 310.57 227.31 309.668 226.898 308.759H226.621V326.273H217.544ZM226.429 297.636C226.429 299.582 226.699 301.28 227.239 302.729C227.778 304.178 228.56 305.307 229.582 306.116C230.605 306.912 231.848 307.31 233.311 307.31C234.788 307.31 236.038 306.905 237.061 306.095C238.084 305.271 238.858 304.135 239.384 302.686C239.923 301.223 240.193 299.54 240.193 297.636C240.193 295.747 239.93 294.085 239.405 292.651C238.879 291.216 238.105 290.094 237.082 289.284C236.06 288.474 234.803 288.07 233.311 288.07C231.834 288.07 230.584 288.46 229.561 289.241C228.553 290.023 227.778 291.131 227.239 292.565C226.699 294 226.429 295.69 226.429 297.636ZM270.428 314.639C267.061 314.639 264.163 313.957 261.734 312.594C259.32 311.216 257.459 309.27 256.152 306.756C254.845 304.227 254.192 301.237 254.192 297.786C254.192 294.419 254.845 291.464 256.152 288.922C257.459 286.379 259.298 284.398 261.67 282.977C264.057 281.557 266.855 280.847 270.065 280.847C272.224 280.847 274.234 281.195 276.095 281.891C277.97 282.572 279.604 283.602 280.996 284.98C282.402 286.358 283.496 288.091 284.277 290.179C285.058 292.253 285.449 294.682 285.449 297.466V299.959H257.814V294.334H276.905C276.905 293.027 276.621 291.869 276.053 290.861C275.484 289.852 274.696 289.064 273.688 288.496C272.693 287.913 271.536 287.622 270.214 287.622C268.837 287.622 267.615 287.942 266.55 288.581C265.499 289.206 264.675 290.051 264.078 291.116C263.482 292.168 263.176 293.339 263.162 294.632V299.98C263.162 301.599 263.46 302.999 264.057 304.178C264.668 305.357 265.527 306.266 266.635 306.905C267.743 307.544 269.057 307.864 270.577 307.864C271.585 307.864 272.509 307.722 273.347 307.438C274.185 307.153 274.902 306.727 275.499 306.159C276.095 305.591 276.55 304.895 276.862 304.071L285.257 304.625C284.831 306.642 283.957 308.403 282.636 309.909C281.33 311.401 279.639 312.565 277.565 313.403C275.506 314.227 273.126 314.639 270.428 314.639ZM291.372 314V281.273H300.172V286.983H300.513C301.109 284.952 302.111 283.418 303.517 282.381C304.923 281.33 306.543 280.804 308.375 280.804C308.83 280.804 309.32 280.832 309.845 280.889C310.371 280.946 310.832 281.024 311.23 281.124V289.178C310.804 289.05 310.214 288.936 309.462 288.837C308.709 288.737 308.02 288.688 307.395 288.688C306.06 288.688 304.866 288.979 303.815 289.561C302.778 290.129 301.955 290.925 301.344 291.947C300.747 292.97 300.449 294.149 300.449 295.484V314H291.372ZM137.793 343.364H149.17L161.188 372.682H161.699L173.716 343.364H185.094V387H176.145V358.598H175.783L164.49 386.787H158.396L147.104 358.491H146.741V387H137.793V343.364ZM213.512 373.065V354.273H222.588V387H213.874V381.055H213.533C212.794 382.973 211.566 384.514 209.847 385.679C208.142 386.844 206.061 387.426 203.604 387.426C201.417 387.426 199.492 386.929 197.83 385.935C196.168 384.94 194.868 383.527 193.931 381.695C193.007 379.862 192.539 377.668 192.525 375.111V354.273H201.601V373.491C201.615 375.423 202.134 376.95 203.157 378.072C204.179 379.195 205.55 379.756 207.269 379.756C208.363 379.756 209.385 379.507 210.337 379.01C211.289 378.499 212.056 377.746 212.638 376.751C213.235 375.757 213.526 374.528 213.512 373.065ZM238.925 343.364V387H229.849V343.364H238.925ZM263.604 354.273V361.091H243.895V354.273H263.604ZM248.37 346.432H257.446V376.943C257.446 377.781 257.574 378.435 257.83 378.903C258.086 379.358 258.441 379.678 258.895 379.862C259.364 380.047 259.904 380.139 260.515 380.139C260.941 380.139 261.367 380.104 261.793 380.033C262.219 379.947 262.546 379.884 262.773 379.841L264.201 386.595C263.746 386.737 263.107 386.901 262.283 387.085C261.459 387.284 260.458 387.405 259.279 387.447C257.091 387.533 255.174 387.241 253.526 386.574C251.892 385.906 250.621 384.869 249.712 383.463C248.803 382.057 248.355 380.281 248.37 378.136V346.432ZM269.517 387V354.273H278.593V387H269.517ZM274.076 350.054C272.727 350.054 271.569 349.607 270.603 348.712C269.652 347.803 269.176 346.716 269.176 345.452C269.176 344.202 269.652 343.129 270.603 342.234C271.569 341.325 272.727 340.871 274.076 340.871C275.426 340.871 276.576 341.325 277.528 342.234C278.494 343.129 278.977 344.202 278.977 345.452C278.977 346.716 278.494 347.803 277.528 348.712C276.576 349.607 275.426 350.054 274.076 350.054ZM328.856 357.469C328.558 356.432 328.139 355.516 327.599 354.72C327.059 353.911 326.399 353.229 325.618 352.675C324.85 352.107 323.97 351.673 322.975 351.375C321.995 351.077 320.909 350.928 319.716 350.928C317.485 350.928 315.525 351.482 313.835 352.589C312.159 353.697 310.852 355.31 309.914 357.426C308.977 359.528 308.508 362.099 308.508 365.139C308.508 368.179 308.97 370.764 309.893 372.895C310.816 375.026 312.123 376.652 313.814 377.774C315.504 378.882 317.5 379.436 319.801 379.436C321.889 379.436 323.672 379.067 325.149 378.328C326.64 377.575 327.777 376.517 328.558 375.153C329.353 373.79 329.751 372.178 329.751 370.317L331.626 370.594H320.376V363.648H338.636V369.145C338.636 372.98 337.826 376.276 336.207 379.031C334.588 381.773 332.358 383.889 329.517 385.381C326.676 386.858 323.423 387.597 319.758 387.597C315.667 387.597 312.074 386.695 308.977 384.891C305.88 383.072 303.466 380.494 301.733 377.156C300.014 373.804 299.154 369.827 299.154 365.224C299.154 361.687 299.666 358.534 300.689 355.764C301.725 352.98 303.174 350.622 305.035 348.69C306.896 346.759 309.062 345.288 311.534 344.28C314.005 343.271 316.683 342.767 319.566 342.767C322.038 342.767 324.339 343.129 326.47 343.854C328.6 344.564 330.49 345.572 332.137 346.879C333.799 348.186 335.156 349.741 336.207 351.545C337.258 353.335 337.933 355.31 338.231 357.469H328.856ZM345.396 387V354.273H354.195V359.983H354.536C355.133 357.952 356.134 356.418 357.54 355.381C358.947 354.33 360.566 353.804 362.398 353.804C362.853 353.804 363.343 353.832 363.869 353.889C364.394 353.946 364.856 354.024 365.254 354.124V362.178C364.827 362.05 364.238 361.936 363.485 361.837C362.732 361.737 362.043 361.688 361.418 361.688C360.083 361.688 358.89 361.979 357.839 362.561C356.802 363.129 355.978 363.925 355.367 364.947C354.771 365.97 354.472 367.149 354.472 368.484V387H345.396ZM378.341 387.618C376.253 387.618 374.392 387.256 372.759 386.531C371.125 385.793 369.833 384.706 368.881 383.271C367.944 381.822 367.475 380.018 367.475 377.859C367.475 376.041 367.809 374.514 368.476 373.278C369.144 372.043 370.053 371.048 371.203 370.295C372.354 369.543 373.661 368.974 375.124 368.591C376.601 368.207 378.15 367.938 379.769 367.781C381.672 367.582 383.206 367.398 384.371 367.227C385.536 367.043 386.381 366.773 386.907 366.418C387.432 366.062 387.695 365.537 387.695 364.841V364.713C387.695 363.364 387.269 362.32 386.417 361.581C385.578 360.842 384.385 360.473 382.837 360.473C381.203 360.473 379.904 360.835 378.938 361.56C377.972 362.27 377.333 363.165 377.02 364.244L368.625 363.562C369.051 361.574 369.89 359.855 371.14 358.406C372.39 356.943 374.002 355.821 375.976 355.04C377.965 354.244 380.266 353.847 382.88 353.847C384.698 353.847 386.438 354.06 388.1 354.486C389.776 354.912 391.26 355.572 392.553 356.467C393.86 357.362 394.89 358.513 395.642 359.919C396.395 361.311 396.772 362.98 396.772 364.926V387H388.164V382.462H387.908C387.382 383.484 386.679 384.386 385.799 385.168C384.918 385.935 383.86 386.538 382.624 386.979C381.388 387.405 379.961 387.618 378.341 387.618ZM380.941 381.354C382.276 381.354 383.455 381.091 384.478 380.565C385.5 380.026 386.303 379.301 386.885 378.392C387.468 377.483 387.759 376.453 387.759 375.303V371.83C387.475 372.014 387.084 372.185 386.587 372.341C386.104 372.483 385.557 372.618 384.946 372.746C384.336 372.859 383.725 372.966 383.114 373.065C382.503 373.151 381.949 373.229 381.452 373.3C380.387 373.456 379.456 373.705 378.661 374.045C377.865 374.386 377.248 374.848 376.807 375.43C376.367 375.999 376.147 376.709 376.147 377.561C376.147 378.797 376.594 379.741 377.489 380.395C378.398 381.034 379.549 381.354 380.941 381.354ZM403.814 399.273V354.273H412.762V359.77H413.167C413.565 358.889 414.14 357.994 414.893 357.085C415.66 356.162 416.654 355.395 417.876 354.784C419.112 354.159 420.646 353.847 422.478 353.847C424.865 353.847 427.066 354.472 429.083 355.722C431.1 356.957 432.713 358.825 433.92 361.325C435.127 363.811 435.731 366.929 435.731 370.679C435.731 374.33 435.142 377.412 433.963 379.926C432.798 382.426 431.207 384.322 429.19 385.615C427.187 386.893 424.943 387.533 422.457 387.533C420.696 387.533 419.197 387.241 417.961 386.659C416.74 386.077 415.738 385.345 414.957 384.464C414.176 383.57 413.579 382.668 413.167 381.759H412.89V399.273H403.814ZM412.699 370.636C412.699 372.582 412.968 374.28 413.508 375.729C414.048 377.178 414.829 378.307 415.852 379.116C416.875 379.912 418.118 380.31 419.581 380.31C421.058 380.31 422.308 379.905 423.331 379.095C424.353 378.271 425.127 377.135 425.653 375.686C426.193 374.223 426.463 372.54 426.463 370.636C426.463 368.747 426.2 367.085 425.674 365.651C425.149 364.216 424.375 363.094 423.352 362.284C422.329 361.474 421.072 361.07 419.581 361.07C418.103 361.07 416.853 361.46 415.831 362.241C414.822 363.023 414.048 364.131 413.508 365.565C412.968 367 412.699 368.69 412.699 370.636ZM450.859 368.08V387H441.782V343.364H450.603V360.047H450.987C451.725 358.115 452.919 356.602 454.566 355.509C456.214 354.401 458.281 353.847 460.767 353.847C463.039 353.847 465.021 354.344 466.711 355.338C468.416 356.318 469.737 357.732 470.674 359.578C471.626 361.411 472.095 363.605 472.081 366.162V387H463.004V367.781C463.018 365.764 462.507 364.195 461.47 363.072C460.447 361.95 459.012 361.389 457.166 361.389C455.93 361.389 454.836 361.652 453.885 362.178C452.947 362.703 452.208 363.47 451.669 364.479C451.143 365.473 450.873 366.673 450.859 368.08Z" fill="white"/>
</g>
<circle cx="450" cy="747" r="143" stroke="white" stroke-width="10"/>
<circle cx="925" cy="528" r="143" stroke="white" stroke-width="10"/>
<circle cx="1400" cy="296" r="143" stroke="white" stroke-width="10"/>
<circle cx="1343" cy="926" r="143" stroke="white" stroke-width="10"/>
<circle cx="811" cy="1155" r="143" stroke="white" stroke-width="10"/>
<circle cx="348.5" cy="1135.5" r="80.5" stroke="#9E00FF" stroke-width="10"/>
<circle cx="1555.5" cy="640.5" r="80.5" stroke="#1C68F3" stroke-width="10"/>
<circle cx="1280.5" cy="1307.5" r="80.5" stroke="#9E00FF" stroke-width="10"/>
<circle cx="995.5" cy="878.5" r="80.5" stroke="#9E00FF" stroke-width="10"/>
<circle cx="2183.5" cy="934.5" r="80.5" stroke="#1C68F3" stroke-width="10"/>
<circle cx="745.5" cy="233.5" r="80.5" stroke="#1C68F3" stroke-width="10"/>
<circle cx="1831" cy="1222" r="143" stroke="white" stroke-width="10"/>
<circle cx="1921" cy="578" r="143" stroke="white" stroke-width="10"/>
<path d="M781 565L734.828 563.802L756.876 604.388L781 565ZM574.909 681.515L751.276 585.7L747.457 578.671L571.091 674.485L574.909 681.515Z" fill="white"/>
<path d="M598 747L644.164 748.486L622.369 707.764L598 747ZM631.627 733.539L812.888 636.527L809.113 629.473L627.852 726.486L631.627 733.539Z" fill="white"/>
<path d="M549.51 839.185L560.102 884.142L593.74 852.49L549.51 839.185ZM571.267 868.144L729.025 1035.8L734.851 1030.32L577.093 862.662L571.267 868.144Z" fill="white"/>
<path d="M685.491 1083.81L674.255 1039.01L641.074 1071.14L685.491 1083.81ZM489.126 886.783L657.574 1060.74L663.321 1055.17L494.874 881.217L489.126 886.783Z" fill="#9E00FF"/>
<path d="M416 893L381.206 923.377L424.91 938.32L416 893ZM366.785 1049.29L408.137 928.358L400.568 925.77L359.215 1046.71L366.785 1049.29Z" fill="#9E00FF"/>
<path d="M434 1155L472.181 1180.99L475.6 1134.93L434 1155ZM663.296 1168.01L470.197 1153.68L469.605 1161.65L662.704 1175.99L663.296 1168.01Z" fill="#9E00FF"/>
<path d="M1195 955L1148.89 952.377L1169.67 993.624L1195 955ZM940.8 1087.57L1164.65 974.772L1161.05 967.628L937.2 1080.43L940.8 1087.57Z" fill="white"/>
<path d="M953 671L939.095 715.045L984.192 705.065L953 671ZM983.906 792.136L964.684 705.285L956.873 707.014L976.094 793.864L983.906 792.136Z" fill="#9E00FF"/>
<path d="M1195 926L1160.21 895.619L1151.29 940.939L1195 926ZM1072.23 905.925L1158.9 922.976L1160.45 915.126L1073.77 898.075L1072.23 905.925Z" fill="#9E00FF"/>
<path d="M959 955L914.545 967.533L947.626 999.766L959 955ZM885.865 1035.79L936.742 983.576L931.012 977.993L880.135 1030.21L885.865 1035.79Z" fill="#9E00FF"/>
<path d="M959 1136L1005.11 1138.62L984.329 1097.38L959 1136ZM992.949 1123.37L1216.8 1010.57L1213.2 1003.43L989.349 1116.23L992.949 1123.37Z" fill="#9E00FF"/>
<path d="M1442 1027L1457.09 1070.65L1487.35 1035.76L1442 1027ZM1466.58 1053.61L1680.38 1239.02L1685.62 1232.98L1471.82 1047.56L1466.58 1053.61Z" fill="#1C68F3"/>
<path d="M1713 1303L1673 1279.91V1326.09L1713 1303ZM1677 1299H1366V1307H1677V1299Z" fill="#9E00FF"/>
<path d="M1291 1221L1320.63 1185.57L1275.13 1177.63L1291 1221ZM1301.13 1186.22L1320.94 1072.69L1313.06 1071.31L1293.25 1184.85L1301.13 1186.22Z" fill="#9E00FF"/>
<path d="M939 1221L970.049 1255.2L984.138 1211.21L939 1221ZM972.064 1235.79L1193.78 1306.81L1196.22 1299.19L974.504 1228.17L972.064 1235.79Z" fill="#9E00FF"/>
<path d="M1712.9 1141.09L1697.09 1097.69L1667.41 1133.08L1712.9 1141.09ZM1488.43 958.065L1682.75 1121.02L1687.89 1114.89L1493.57 951.935L1488.43 958.065Z" fill="white"/>
<path d="M1907 1084L1934.73 1047.06L1888.88 1041.52L1907 1084ZM1947.2 718.519L1907.35 1047.78L1915.3 1048.74L1955.14 719.481L1947.2 718.519Z" fill="white"/>
<path d="M2139 872L2145.62 826.288L2102.72 843.414L2139 872ZM2043.46 643.483L2121.94 840.049L2129.37 837.083L2050.89 640.517L2043.46 643.483Z" fill="#1C68F3"/>
<path d="M1965 1164L2010.17 1154.35L1979.23 1120.06L1965 1164ZM2136.32 1004.03L1989.05 1136.91L1994.41 1142.85L2141.68 1009.97L2136.32 1004.03Z" fill="#1C68F3"/>
<path d="M1859.17 707L1831.44 743.936L1877.29 749.485L1859.17 707ZM1850.88 742.259L1811.03 1071.52L1818.97 1072.48L1858.82 743.22L1850.88 742.259Z" fill="white"/>
<path d="M1261 339L1214.83 337.802L1236.88 378.388L1261 339ZM1054.91 455.515L1231.28 359.7L1227.46 352.671L1051.09 448.485L1054.91 455.515Z" fill="white"/>
<path d="M1078 521L1124.16 522.486L1102.37 481.764L1078 521ZM1111.63 507.539L1292.89 410.527L1289.11 403.473L1107.85 500.486L1111.63 507.539Z" fill="#1C68F3"/>
<path d="M1773 556L1753.05 514.345L1726.95 552.453L1773 556ZM1513.74 383.3L1741.04 538.959L1745.56 532.359L1518.26 376.7L1513.74 383.3Z" fill="#1C68F3"/>
<path d="M1548 314L1567.95 355.655L1594.05 317.547L1548 314ZM1575.44 337.641L1802.74 493.3L1807.26 486.7L1579.96 331.041L1575.44 337.641Z" fill="white"/>
<path d="M703.503 310L662.299 330.87L700.975 356.119L703.503 310ZM680.474 337.958L503.65 608.813L510.349 613.187L687.173 342.331L680.474 337.958Z" fill="#1C68F3"/>
<path d="M792 296L793.991 342.145L832.959 317.348L792 296ZM807.953 328.519L851.625 397.148L858.375 392.853L814.702 324.224L807.953 328.519Z" fill="#1C68F3"/>
<path d="M1261 283L1222.5 257.483L1219.65 303.583L1261 283ZM1225.32 276.788L824.247 252.008L823.753 259.992L1224.82 284.772L1225.32 276.788Z" fill="#1C68F3"/>
<path d="M1291 793L1319.53 756.679L1273.81 750.129L1291 793ZM1300.06 757.931L1346.96 430.567L1339.04 429.433L1292.15 756.797L1300.06 757.931Z" fill="white"/>
<path d="M1431 430L1402.47 466.321L1448.19 472.871L1431 430ZM1382.96 793.567L1429.85 466.203L1421.94 465.069L1375.04 792.433L1382.96 793.567Z" fill="#1C68F3"/>
<path d="M1053 599L1064.29 643.787L1097.43 611.616L1053 599ZM1254.87 801.214L1080.95 622.045L1075.2 627.617L1249.13 806.786L1254.87 801.214Z" fill="white"/>
<path d="M1211 872L1199.46 827.278L1166.5 859.635L1211 872ZM1188.63 843.508L998.854 650.198L993.146 655.802L1182.93 849.113L1188.63 843.508Z" fill="white"/>
<path d="M828 1007L857.235 971.242L811.65 963.802L828 1007ZM837.746 972.114L886.948 670.644L879.052 669.356L829.851 970.826L837.746 972.114Z" fill="white"/>
<path d="M1477 872L1523.18 871.306L1499.49 831.658L1477 872ZM1509.95 856.967L1807.05 679.434L1802.95 672.566L1505.85 850.1L1509.95 856.967Z" fill="white"/>
<path d="M1773 622L1731.24 602.256L1735.02 648.289L1773 622ZM1736.79 620.959L1638.67 629.013L1639.33 636.987L1737.45 628.932L1736.79 620.959Z" fill="#1C68F3"/>
<path d="M1548 555L1548.33 508.813L1508.16 531.625L1548 555ZM1533.7 521.722L1480.48 428.024L1473.52 431.976L1526.74 525.673L1533.7 521.722Z" fill="#1C68F3"/>
<path d="M1431 804L1474.73 789.136L1439.99 758.696L1431 804ZM1457.73 779.561L1519.01 709.636L1512.99 704.364L1451.72 774.288L1457.73 779.561Z" fill="#1C68F3"/>
<defs>
<filter id="filter0_d_719_122" x="272.582" y="1559.87" width="1958.48" height="67.0839" filterUnits="userSpaceOnUse" color-interpolation-filters="sRGB">
<feFlood flood-opacity="0" result="BackgroundImageFix"/>
<feColorMatrix in="SourceAlpha" type="matrix" values="0 0 0 0 0 0 0 0 0 0 0 0 0 0 0 0 0 0 127 0" result="hardAlpha"/>
<feOffset dy="4"/>
<feGaussianBlur stdDeviation="2"/>
<feComposite in2="hardAlpha" operator="out"/>
<feColorMatrix type="matrix" values="0 0 0 0 0 0 0 0 0 0 0 0 0 0 0 0 0 0 0.25 0"/>
<feBlend mode="normal" in2="BackgroundImageFix" result="effect1_dropShadow_719_122"/>
<feBlend mode="normal" in="SourceGraphic" in2="effect1_dropShadow_719_122" result="shape"/>
</filter>
<filter id="filter1_d_719_122" x="133.793" y="270.364" width="342.309" height="136.909" filterUnits="userSpaceOnUse" color-interpolation-filters="sRGB">
<feFlood flood-opacity="0" result="BackgroundImageFix"/>
<feColorMatrix in="SourceAlpha" type="matrix" values="0 0 0 0 0 0 0 0 0 0 0 0 0 0 0 0 0 0 127 0" result="hardAlpha"/>
<feOffset dy="4"/>
<feGaussianBlur stdDeviation="2"/>
<feComposite in2="hardAlpha" operator="out"/>
<feColorMatrix type="matrix" values="0 0 0 0 0 0 0 0 0 0 0 0 0 0 0 0 0 0 0.25 0"/>
<feBlend mode="normal" in2="BackgroundImageFix" result="effect1_dropShadow_719_122"/>
<feBlend mode="normal" in="SourceGraphic" in2="effect1_dropShadow_719_122" result="shape"/>
</filter>
<linearGradient id="paint0_linear_719_122" x1="1015" y1="314" x2="1015" y2="1329" gradientUnits="userSpaceOnUse">
<stop stop-color="#1C68F3" stop-opacity="0.25"/>
<stop offset="0.75" stop-color="#EDBFEF" stop-opacity="0.05"/>
<stop offset="1" stop-color="#F0C0EE" stop-opacity="0"/>
</linearGradient>
<linearGradient id="paint1_linear_719_122" x1="263" y1="314" x2="263" y2="1329" gradientUnits="userSpaceOnUse">
<stop stop-color="#1C68F3" stop-opacity="0.25"/>
<stop offset="0.75" stop-color="#EDBFEF" stop-opacity="0.05"/>
<stop offset="1" stop-color="#F0C0EE" stop-opacity="0"/>
</linearGradient>
<linearGradient id="paint2_linear_719_122" x1="343.057" y1="1585" x2="1173.36" y2="1585" gradientUnits="userSpaceOnUse">
<stop stop-color="#1C68F3"/>
<stop offset="1" stop-color="white"/>
</linearGradient>
</defs>
</svg>
